<svg width="23.000000" height="17.000000" viewBox="0 0 23 17" fill="none" xmlns="http://www.w3.org/2000/svg" xmlns:xlink="http://www.w3.org/1999/xlink">
	<desc>
			Created with Pixso.
	</desc>
	<defs/>
	<path id="Vector" d="M0.07 2.2C0.21 1.57 0.57 1.01 1.08 0.61C1.59 0.21 2.22 0 2.87 0L20.12 0C20.77 0 21.4 0.21 21.91 0.61C22.42 1.01 22.78 1.57 22.92 2.2L11.5 9.08L0.07 2.2ZM0 3.82L0 13.88L8.34 8.84L0 3.82ZM9.71 9.67L0.27 15.38C0.5 15.86 0.87 16.27 1.33 16.56C1.79 16.84 2.33 17 2.87 17L20.12 17C20.66 17 21.2 16.84 21.66 16.56C22.12 16.27 22.49 15.86 22.72 15.37L13.27 9.67L11.5 10.74L9.71 9.67L9.71 9.67ZM14.65 8.84L23 13.88L23 3.82L14.65 8.84L14.65 8.84Z" fill="#ABB2BF" fill-opacity="1.000000" fill-rule="nonzero"/>
</svg>
