<svg width="14.000000" height="20.000000" viewBox="0 0 14 20" fill="none" xmlns="http://www.w3.org/2000/svg" xmlns:xlink="http://www.w3.org/1999/xlink">
	<desc>
			Created with Pixso.
	</desc>
	<defs/>
	<path id="Vector" d="M7 10C7 9.11 7.36 8.26 8.02 7.64C8.68 7.01 9.57 6.66 10.5 6.66C11.42 6.66 12.31 7.01 12.97 7.64C13.63 8.26 14 9.11 14 10C14 10.88 13.63 11.73 12.97 12.35C12.31 12.98 11.42 13.33 10.5 13.33C9.57 13.33 8.68 12.98 8.02 12.35C7.36 11.73 7 10.88 7 10ZM0 16.66C0 15.78 0.36 14.93 1.02 14.3C1.68 13.68 2.57 13.33 3.5 13.33L7 13.33L7 16.66C7 17.55 6.63 18.39 5.97 19.02C5.31 19.64 4.42 20 3.5 20C2.57 20 1.68 19.64 1.02 19.02C0.36 18.39 0 17.55 0 16.66ZM7 0L7 6.66L10.5 6.66C11.42 6.66 12.31 6.31 12.97 5.69C13.63 5.06 14 4.21 14 3.33C14 2.44 13.63 1.6 12.97 0.97C12.31 0.35 11.42 0 10.5 0L7 0ZM0 3.33C0 4.21 0.36 5.06 1.02 5.69C1.68 6.31 2.57 6.66 3.5 6.66L7 6.66L7 0L3.5 0C2.57 0 1.68 0.35 1.02 0.97C0.36 1.6 0 2.44 0 3.33ZM0 10C0 10.88 0.36 11.73 1.02 12.35C1.68 12.98 2.57 13.33 3.5 13.33L7 13.33L7 6.66L3.5 6.66C2.57 6.66 1.68 7.01 1.02 7.64C0.36 8.26 0 9.11 0 10Z" fill="#ABB2BF" fill-opacity="1.000000" fill-rule="nonzero"/>
</svg>
