<svg width="21.000000" height="20.000000" viewBox="0 0 21 20" fill="none" xmlns="http://www.w3.org/2000/svg" xmlns:xlink="http://www.w3.org/1999/xlink">
	<desc>
			Created with Pixso.
	</desc>
	<defs/>
	<path id="Vector" d="M10.5 0C4.69 0 0 4.58 0 10.25C0 14.78 3 18.62 7.17 19.98C7.7 20.07 7.9 19.76 7.9 19.49C7.9 19.25 7.88 18.44 7.88 17.58C5.25 18.05 4.56 16.95 4.35 16.37C4.23 16.08 3.72 15.17 3.28 14.93C2.91 14.73 2.38 14.26 3.26 14.25C4.09 14.23 4.68 14.99 4.88 15.3C5.82 16.85 7.33 16.41 7.94 16.14C8.03 15.48 8.3 15.03 8.6 14.77C6.27 14.52 3.83 13.63 3.83 9.71C3.83 8.59 4.23 7.67 4.9 6.95C4.8 6.7 4.43 5.65 5.01 4.24C5.01 4.24 5.89 3.97 7.9 5.29C8.74 5.06 9.63 4.94 10.52 4.94C11.41 4.94 12.31 5.06 13.15 5.29C15.15 3.96 16.03 4.24 16.03 4.24C16.61 5.65 16.24 6.7 16.14 6.95C16.81 7.67 17.21 8.58 17.21 9.71C17.21 13.64 14.76 14.52 12.42 14.77C12.81 15.09 13.13 15.71 13.13 16.67C13.13 18.04 13.12 19.14 13.12 19.49C13.12 19.76 13.32 20.08 13.84 19.98C15.93 19.29 17.74 17.98 19.02 16.24C20.3 14.49 20.99 12.4 21 10.25C21 4.58 16.3 0 10.5 0Z" fill="#ABB2BF" fill-opacity="1.000000" fill-rule="nonzero"/>
</svg>
