<svg width="25.000000" height="20.000000" viewBox="0 0 25 20" fill="none" xmlns="http://www.w3.org/2000/svg" xmlns:xlink="http://www.w3.org/1999/xlink">
	<g id='discord'>
		<path id="Vector" d="M21.16 1.65C19.54 0.87 17.83 0.32 16.07 0C16.05 -0.01 16.04 0 16.02 0C16.01 0.01 16 0.02 15.99 0.04C15.77 0.45 15.52 0.98 15.35 1.4C13.46 1.1 11.53 1.1 9.64 1.4C9.45 0.94 9.23 0.48 9 0.04C8.99 0.02 8.98 0.01 8.96 0C8.95 0 8.93 -0.01 8.91 0C7.16 0.31 5.45 0.87 3.82 1.65C3.81 1.66 3.8 1.67 3.79 1.68C0.55 6.77 -0.34 11.72 0.1 16.62C0.1 16.64 0.11 16.66 0.13 16.68C2.02 18.15 4.13 19.27 6.37 19.99C6.39 20 6.41 20 6.42 19.99C6.44 19.99 6.45 19.97 6.46 19.96C6.94 19.27 7.37 18.54 7.74 17.78C7.75 17.77 7.75 17.75 7.75 17.73C7.74 17.71 7.74 17.7 7.72 17.68C7.72 17.68 7.71 17.67 7.7 17.67C7.02 17.39 6.37 17.07 5.75 16.69C5.73 16.68 5.71 16.66 5.71 16.64C5.7 16.62 5.7 16.6 5.71 16.58C5.72 16.57 5.73 16.56 5.74 16.55C5.87 16.45 6 16.34 6.12 16.23C6.14 16.22 6.15 16.22 6.16 16.21C6.18 16.21 6.19 16.21 6.2 16.22C10.3 18.18 14.73 18.18 18.77 16.22C18.78 16.21 18.8 16.21 18.81 16.21C18.83 16.22 18.84 16.22 18.85 16.23C18.98 16.34 19.11 16.45 19.24 16.55C19.25 16.56 19.26 16.57 19.26 16.58C19.27 16.59 19.27 16.61 19.27 16.62C19.27 16.64 19.27 16.65 19.26 16.66C19.25 16.67 19.24 16.68 19.23 16.69C18.61 17.07 17.96 17.4 17.28 17.66C17.27 17.67 17.26 17.67 17.25 17.68C17.24 17.69 17.24 17.7 17.23 17.71C17.23 17.72 17.23 17.74 17.23 17.75C17.23 17.76 17.23 17.77 17.24 17.78C17.61 18.54 18.04 19.27 18.52 19.96C18.52 19.97 18.54 19.99 18.55 19.99C18.57 20 18.59 20 18.6 19.99C20.85 19.27 22.97 18.15 24.85 16.68C24.86 16.67 24.87 16.66 24.88 16.65C24.88 16.64 24.89 16.63 24.89 16.62C25.41 10.96 24.01 6.04 21.19 1.69C21.19 1.68 21.18 1.67 21.18 1.67C21.17 1.66 21.17 1.66 21.16 1.65ZM8.35 13.64C7.12 13.64 6.1 12.45 6.1 10.99C6.1 9.54 7.1 8.35 8.35 8.35C9.61 8.35 10.62 9.55 10.6 10.99C10.6 12.45 9.6 13.64 8.35 13.64ZM16.66 13.64C15.42 13.64 14.41 12.45 14.41 10.99C14.41 9.54 15.4 8.35 16.66 8.35C17.92 8.35 18.92 9.55 18.9 10.99C18.9 12.45 17.92 13.64 16.66 13.64Z" fill="#ABB2BF" fill-opacity="1.000000" fill-rule="nonzero"/>
	</g>
	<g id='email'>
		<path id="Vector" d="M0.07 2.2C0.21 1.57 0.57 1.01 1.08 0.61C1.59 0.21 2.22 0 2.87 0L20.12 0C20.77 0 21.4 0.21 21.91 0.61C22.42 1.01 22.78 1.57 22.92 2.2L11.5 9.08L0.07 2.2ZM0 3.82L0 13.88L8.34 8.84L0 3.82ZM9.71 9.67L0.27 15.38C0.5 15.86 0.87 16.27 1.33 16.56C1.79 16.84 2.33 17 2.87 17L20.12 17C20.66 17 21.2 16.84 21.66 16.56C22.12 16.27 22.49 15.86 22.72 15.37L13.27 9.67L11.5 10.74L9.71 9.67L9.71 9.67ZM14.65 8.84L23 13.88L23 3.82L14.65 8.84L14.65 8.84Z" fill="#ABB2BF" fill-opacity="1.000000" fill-rule="nonzero"/>
	</g>
	<g id='figma'>
		<path id="Vector" d="M7 10C7 9.11 7.36 8.26 8.02 7.64C8.68 7.01 9.57 6.66 10.5 6.66C11.42 6.66 12.31 7.01 12.97 7.64C13.63 8.26 14 9.11 14 10C14 10.88 13.63 11.73 12.97 12.35C12.31 12.98 11.42 13.33 10.5 13.33C9.57 13.33 8.68 12.98 8.02 12.35C7.36 11.73 7 10.88 7 10ZM0 16.66C0 15.78 0.36 14.93 1.02 14.3C1.68 13.68 2.57 13.33 3.5 13.33L7 13.33L7 16.66C7 17.55 6.63 18.39 5.97 19.02C5.31 19.64 4.42 20 3.5 20C2.57 20 1.68 19.64 1.02 19.02C0.36 18.39 0 17.55 0 16.66ZM7 0L7 6.66L10.5 6.66C11.42 6.66 12.31 6.31 12.97 5.69C13.63 5.06 14 4.21 14 3.33C14 2.44 13.63 1.6 12.97 0.97C12.31 0.35 11.42 0 10.5 0L7 0ZM0 3.33C0 4.21 0.36 5.06 1.02 5.69C1.68 6.31 2.57 6.66 3.5 6.66L7 6.66L7 0L3.5 0C2.57 0 1.68 0.35 1.02 0.97C0.36 1.6 0 2.44 0 3.33ZM0 10C0 10.88 0.36 11.73 1.02 12.35C1.68 12.98 2.57 13.33 3.5 13.33L7 13.33L7 6.66L3.5 6.66C2.57 6.66 1.68 7.01 1.02 7.64C0.36 8.26 0 9.11 0 10Z" fill="#ABB2BF" fill-opacity="1.000000" fill-rule="nonzero"/>
	</g>
	<g id='github'>
		<path id="Vector" d="M10.5 0C4.69 0 0 4.58 0 10.25C0 14.78 3 18.62 7.17 19.98C7.7 20.07 7.9 19.76 7.9 19.49C7.9 19.25 7.88 18.44 7.88 17.58C5.25 18.05 4.56 16.95 4.35 16.37C4.23 16.08 3.72 15.17 3.28 14.93C2.91 14.73 2.38 14.26 3.26 14.25C4.09 14.23 4.68 14.99 4.88 15.3C5.82 16.85 7.33 16.41 7.94 16.14C8.03 15.48 8.3 15.03 8.6 14.77C6.27 14.52 3.83 13.63 3.83 9.71C3.83 8.59 4.23 7.67 4.9 6.95C4.8 6.7 4.43 5.65 5.01 4.24C5.01 4.24 5.89 3.97 7.9 5.29C8.74 5.06 9.63 4.94 10.52 4.94C11.41 4.94 12.31 5.06 13.15 5.29C15.15 3.96 16.03 4.24 16.03 4.24C16.61 5.65 16.24 6.7 16.14 6.95C16.81 7.67 17.21 8.58 17.21 9.71C17.21 13.64 14.76 14.52 12.42 14.77C12.81 15.09 13.13 15.71 13.13 16.67C13.13 18.04 13.12 19.14 13.12 19.49C13.12 19.76 13.32 20.08 13.84 19.98C15.93 19.29 17.74 17.98 19.02 16.24C20.3 14.49 20.99 12.4 21 10.25C21 4.58 16.3 0 10.5 0Z" fill="#ABB2BF" fill-opacity="1.000000" fill-rule="nonzero"/>
	</g>
	<g id='case'>
		<path id="“" d="M10.56 15.61C10.56 17.04 10.03 18.25 8.99 19.23C7.96 20.21 6.71 20.7 5.24 20.7C3.73 20.7 2.47 20.21 1.47 19.23C0.49 18.25 0 17.04 0 15.61C0 14.93 0.09 14.2 0.28 13.44C0.47 12.67 0.86 11.68 1.43 10.46L6.4 0L11.2 0L8.54 11.58C9.14 12.01 9.62 12.57 9.98 13.28C10.36 13.96 10.56 14.74 10.56 15.61ZM24.8 15.61C24.8 17.04 24.27 18.25 23.23 19.23C22.18 20.21 20.93 20.7 19.48 20.7C18.01 20.7 16.76 20.21 15.74 19.23C14.74 18.25 14.24 17.04 14.24 15.61C14.24 14.93 14.33 14.2 14.52 13.44C14.72 12.67 15.11 11.68 15.71 10.46L20.7 0L25.47 0L22.78 11.58C23.4 12.01 23.89 12.57 24.25 13.28C24.61 13.96 24.8 14.74 24.8 15.61Z" fill="#ABB2BF" fill-opacity="1.000000" fill-rule="nonzero"/>
	</g>
	<g id='logo'>
			<path id="Union" d="M26 0L52 0L52 39L26 39L26 26L39 26L39 13L26 13L26 0ZM0 13L26 13L26 26L13 26L13 39L26 39L26 52L0 52L0 13Z" clip-rule="evenodd" fill="#FFFFFF" fill-opacity="1.000000" fill-rule="evenodd"/>
			
	</g>
	
</svg>
