<svg width="26.000000" height="21.000000" viewBox="0 0 26 21" fill="none" xmlns="http://www.w3.org/2000/svg" xmlns:xlink="http://www.w3.org/1999/xlink">
	<desc>
			Created with Pixso.
	</desc>
	<defs/>
	<path id="“" d="M10.56 15.61C10.56 17.04 10.03 18.25 8.99 19.23C7.96 20.21 6.71 20.7 5.24 20.7C3.73 20.7 2.47 20.21 1.47 19.23C0.49 18.25 0 17.04 0 15.61C0 14.93 0.09 14.2 0.28 13.44C0.47 12.67 0.86 11.68 1.43 10.46L6.4 0L11.2 0L8.54 11.58C9.14 12.01 9.62 12.57 9.98 13.28C10.36 13.96 10.56 14.74 10.56 15.61ZM24.8 15.61C24.8 17.04 24.27 18.25 23.23 19.23C22.18 20.21 20.93 20.7 19.48 20.7C18.01 20.7 16.76 20.21 15.74 19.23C14.74 18.25 14.24 17.04 14.24 15.61C14.24 14.93 14.33 14.2 14.52 13.44C14.72 12.67 15.11 11.68 15.71 10.46L20.7 0L25.47 0L22.78 11.58C23.4 12.01 23.89 12.57 24.25 13.28C24.61 13.96 24.8 14.74 24.8 15.61Z" fill="#ABB2BF" fill-opacity="1.000000" fill-rule="nonzero"/>
</svg>
