<svg width="72.000000" height="21.000000" viewBox="0 0 72 21" fill="none" xmlns="http://www.w3.org/2000/svg" xmlns:xlink="http://www.w3.org/1999/xlink">
	<desc>
			Created with Pixso.
	</desc>
	<defs/>
	<rect id="Logo" width="16.000000" height="16.000000" transform="translate(0.000000 2.500000)" fill="#FFFFFF" fill-opacity="0"/>
	<path id="Union" d="" fill="#FFFFFF" fill-opacity="1.000000" fill-rule="nonzero"/>
	<path id="Elias" d="M49.04 3.3C48.76 3.03 48.4 2.9 47.97 2.9Q47.49 2.9 47.14 3.1Q47 3.19 46.88 3.3C46.6 3.58 46.46 3.91 46.46 4.32Q46.46 4.66 46.59 4.94Q46.69 5.16 46.88 5.34C47.16 5.62 47.52 5.75 47.97 5.75C48.4 5.75 48.76 5.62 49.04 5.34Q49.22 5.16 49.33 4.94Q49.45 4.66 49.45 4.32C49.45 3.91 49.32 3.58 49.04 3.3ZM39.14 13.17L39.14 3.97L34.11 3.97L34.11 5.7L36.61 5.7L36.61 12.86Q36.61 14.34 37.33 15.23Q37.43 15.35 37.53 15.44Q38.25 16.11 39.59 16.11Q40.4 16.11 41 15.94C41.41 15.83 41.76 15.7 42.04 15.55L41.44 13.86C41.26 13.93 41.07 13.99 40.87 14.05C40.67 14.1 40.46 14.12 40.24 14.12Q39.72 14.12 39.43 13.9C39.24 13.75 39.14 13.51 39.14 13.17ZM28.11 9.29L28.11 6.62L32.47 6.62L32.73 4.75L25.48 4.75L25.48 15.84L32.74 15.84L32.74 13.96L28.11 13.96L28.11 11.13L31.95 11.13L31.95 9.29L28.11 9.29ZM61.18 14.09C61.09 13.94 61.05 13.71 61.05 13.39L61.05 10.06C61.05 9.09 60.74 8.35 60.14 7.84C59.53 7.32 58.6 7.06 57.34 7.06C56.87 7.06 56.33 7.12 55.74 7.22C55.14 7.33 54.57 7.49 54.02 7.7L54.61 9.38C55.03 9.23 55.46 9.12 55.89 9.05C56.31 8.97 56.66 8.93 56.94 8.93Q57.76 8.93 58.18 9.25C58.47 9.46 58.62 9.79 58.62 10.23L58.62 10.55L57.47 10.55C56.16 10.55 55.14 10.8 54.42 11.3Q53.94 11.63 53.67 12.09Q53.34 12.67 53.34 13.44Q53.34 14.19 53.65 14.77Q53.83 15.09 54.11 15.37C54.63 15.86 55.33 16.11 56.21 16.11C56.74 16.11 57.25 16.02 57.76 15.83Q58.33 15.61 58.75 15.23Q58.89 15.1 59.01 14.96Q59.2 15.3 59.48 15.53Q59.64 15.66 59.82 15.75C60.16 15.92 60.59 16.03 61.09 16.08L61.61 14.42C61.41 14.34 61.27 14.23 61.18 14.09ZM67.91 14.1C67.66 14.24 67.32 14.3 66.9 14.3C66.4 14.3 65.94 14.22 65.52 14.05C65.11 13.88 64.73 13.66 64.4 13.41L63.13 14.83C63.57 15.22 64.11 15.52 64.74 15.76C65.37 15.99 66.09 16.11 66.91 16.11C67.64 16.11 68.31 16.01 68.91 15.8C69.52 15.59 70.01 15.28 70.38 14.86C70.75 14.44 70.93 13.92 70.93 13.3C70.93 12.75 70.82 12.3 70.59 11.97Q70.56 11.91 70.52 11.86Q70.2 11.42 69.64 11.15Q69.03 10.85 68.21 10.62Q67.38 10.38 66.95 10.22C66.66 10.1 66.46 10 66.35 9.89C66.25 9.79 66.2 9.66 66.2 9.52C66.2 9.3 66.3 9.14 66.5 9.03Q66.8 8.86 67.42 8.86C67.83 8.86 68.24 8.93 68.64 9.06C69.05 9.19 69.43 9.36 69.78 9.58L70.79 8.1C70.38 7.8 69.89 7.55 69.32 7.36C68.76 7.16 68.1 7.06 67.35 7.06Q66.15 7.06 65.33 7.41C64.78 7.63 64.36 7.94 64.08 8.34C63.8 8.73 63.66 9.18 63.66 9.69Q63.66 10.44 63.99 10.94C64.21 11.28 64.52 11.55 64.91 11.77C65.31 11.98 65.77 12.16 66.29 12.3C66.86 12.45 67.28 12.58 67.57 12.7C67.86 12.81 68.05 12.92 68.15 13.05C68.26 13.17 68.31 13.32 68.31 13.5C68.31 13.77 68.18 13.97 67.91 14.1ZM49.49 14.11L49.49 7.34L44.64 7.34L44.64 9.07L46.97 9.07L46.97 14.11L44.56 14.11L44.56 15.84L51.65 15.84L51.65 14.11L49.49 14.11ZM57.94 14.06C57.64 14.22 57.35 14.3 57.08 14.3C56.72 14.3 56.44 14.21 56.24 14.03C56.04 13.84 55.94 13.59 55.94 13.26C55.94 12.85 56.11 12.53 56.44 12.32C56.77 12.1 57.29 11.99 57.99 11.99L58.62 11.99L58.62 13.37C58.46 13.67 58.23 13.9 57.94 14.06Z" fill="#FFFFFF" fill-opacity="1.000000" fill-rule="evenodd"/>
</svg>
