<svg width="23.000000" height="23.000000" viewBox="0 0 23 23" fill="none" xmlns="http://www.w3.org/2000/svg" xmlns:xlink="http://www.w3.org/1999/xlink">
	<desc>
			Created with Pixso.
	</desc>
	<defs/>
	<path id="Vector" d="M11.5 0C5.15 0 0 5.15 0 11.5C0 17.84 5.15 23 11.5 23C17.83 23 23 17.84 23 11.5C23 5.15 17.83 0 11.5 0ZM19.09 5.3C20.51 7.02 21.29 9.18 21.31 11.41C20.99 11.35 17.74 10.68 14.48 11.1C14.4 10.93 14.34 10.76 14.26 10.59C14.06 10.11 13.84 9.62 13.62 9.16C17.23 7.69 18.88 5.57 19.09 5.3L19.09 5.3ZM11.5 1.69C13.99 1.69 16.27 2.63 18.01 4.16C17.83 4.41 16.35 6.39 12.85 7.7C11.24 4.75 9.46 2.33 9.19 1.95C9.94 1.78 10.72 1.69 11.5 1.69ZM7.32 2.61C8.63 4.44 9.85 6.33 10.96 8.29C6.37 9.51 2.32 9.49 1.88 9.49C2.19 8 2.85 6.61 3.79 5.41C4.74 4.22 5.94 3.26 7.32 2.62L7.32 2.61ZM1.67 11.51L1.67 11.21C2.09 11.22 6.86 11.28 11.76 9.81C12.04 10.36 12.31 10.92 12.56 11.48L12.17 11.59C7.1 13.23 4.41 17.69 4.19 18.07C2.56 16.27 1.67 13.93 1.67 11.51L1.67 11.51ZM11.5 21.32C9.31 21.33 7.19 20.6 5.47 19.25C5.64 18.89 7.64 15.05 13.18 13.12C13.2 13.1 13.22 13.1 13.24 13.09C14.18 15.5 14.88 18 15.34 20.54C14.12 21.06 12.82 21.33 11.5 21.32ZM16.97 19.64C16.87 19.04 16.35 16.17 15.06 12.64C18.14 12.16 20.84 12.95 21.17 13.07C20.96 14.39 20.48 15.66 19.76 16.79C19.04 17.92 18.09 18.89 16.97 19.64L16.97 19.64Z" fill="#ABB2BF" fill-opacity="1.000000" fill-rule="evenodd"/>
</svg>
